<svg width="81" height="89" viewBox="0 0 81 89" fill="none" xmlns="http://www.w3.org/2000/svg">
<path d="M76.9931 19.8C75.4931 19.2 73.8931 19.3 72.4931 20C71.0931 20.7 70.0932 21.8 69.6932 23.3L65.7932 44.3C65.7932 44.4 65.6932 44.4 65.6932 44.4L63.7931 43.6L63.6931 43.5L66.2932 12.8C66.4932 9.5 63.9931 6.7 60.6931 6.4C58.9931 6.2 57.3932 6.7 56.0932 7.8C54.7932 8.9 53.9931 10.4 53.8931 12L51.0931 37.2C51.0931 37.3 50.9931 37.3 50.9931 37.3L49.0931 37L48.9931 36.9L50.0931 6C49.9931 2.6 47.1931 0 43.7931 0H43.5931C40.1931 0 37.3931 2.8 37.3931 6.1L35.3931 36.5C35.3931 36.6 35.3931 36.6 35.2931 36.6L33.1931 36.7C33.0931 36.7 33.0931 36.7 33.0931 36.6L32.3931 12.1V11.8C32.1931 10.2 31.3931 8.8 30.0931 7.8C28.7931 6.8 27.1932 6.3 25.4932 6.5L24.7931 6.6C21.4931 7 18.9931 10 19.2931 13.3L19.5931 51.6L17.9932 52L12.2931 37.5V37.4C11.1931 35.2 8.99315 33.8 6.49315 33.8C4.39315 33.8 2.29315 34.8 0.993149 36.8C-0.00685078 38.4 -0.206851 40.3 0.193149 42.2C1.19315 46.1 2.59315 51.3 3.79315 55.5V55.7C4.49315 58.3 6.09315 62.3 6.59315 63.4C11.3931 73.5 14.7932 76.3 20.9932 81.8C26.7932 86.9 34.4931 88.5 41.8931 88.5C45.2931 88.5 48.5931 88 51.7931 87C62.2931 83.8 70.2932 76 74.5932 65C77.8932 56.4 80.1931 29.7 80.4931 26.3C81.0931 23.5 79.5931 20.8 76.9931 19.8Z" fill="white"/>
</svg>
