<svg width="67" height="91" viewBox="0 0 67 91" fill="none" xmlns="http://www.w3.org/2000/svg">
<path d="M19.7055 7.19819C19.7465 7.18019 19.7875 7.16119 19.8245 7.13619C19.8435 7.12319 19.8625 7.10819 19.8785 7.09119C19.9405 7.02619 19.9655 6.93519 19.9905 6.84819C20.2275 6.05319 20.7585 5.34919 21.4565 4.90119C21.8725 4.63419 22.3055 4.77919 22.1625 5.29519C22.0515 5.69419 21.9415 6.09319 21.8305 6.49119C23.8785 6.10419 25.8845 5.96719 27.8155 6.88819C30.0695 7.96219 31.5565 9.95219 33.2265 11.7222C33.4615 11.9712 33.6995 12.2152 33.9425 12.4582C33.9885 12.5042 34.0215 12.5452 34.0815 12.5712C34.6245 11.7542 34.8945 10.5672 35.3355 9.68219C35.7985 8.75119 36.3475 7.96319 36.9305 7.10119L36.9615 7.05319L36.9535 6.99919C36.6085 4.80419 35.8465 3.05219 34.0375 1.50519C32.7125 0.371192 30.9795 0.0791918 29.2885 0.0111918C23.0925 -0.237808 17.9535 3.69419 15.5395 9.19619L15.3445 9.64119L15.7465 9.37219C17.0095 8.52719 18.3225 7.82219 19.7055 7.19819Z" fill="white"/>
<path d="M38.1623 31.5341C35.4183 31.7371 32.6283 31.6131 29.9113 31.1831C29.7173 31.1531 28.8233 31.1041 28.6963 30.9541C29.9113 32.3861 31.6703 33.3441 33.5313 33.5881C34.3653 33.6981 35.2403 33.6631 36.0113 33.3261C36.6683 33.0381 37.2073 32.5531 37.7063 32.0291C37.8603 31.8671 38.0123 31.7001 38.1623 31.5341Z" fill="white"/>
<path d="M35.8943 14.164C35.9753 14.349 36.1363 14.484 36.2923 14.611C38.8043 16.655 42.5663 18.022 44.5393 20.623C45.1603 21.442 45.4763 22.339 45.6313 23.343C47.0853 21.78 48.1373 19.364 48.8993 17.392C50.8703 12.29 46.0733 7.43003 40.9623 7.38303C39.7093 7.37203 38.5503 7.78603 37.6293 8.97203C36.6613 10.219 36.2733 11.807 35.9093 13.343C35.8453 13.614 35.7823 13.908 35.8943 14.164Z" fill="white"/>
<path d="M46.0965 26.2623C44.2385 29.0903 41.7105 31.3383 39.2895 33.6693L39.2525 33.7063C38.6425 34.3273 37.9975 34.9213 37.5085 35.6473C37.4445 35.7423 37.3815 35.8433 37.3745 35.9573C37.3665 36.0833 37.4285 36.2013 37.4825 36.3143C37.6775 36.7173 37.7655 37.1543 37.9585 37.5573C38.1495 37.9563 38.3975 38.3273 38.6835 38.6653C40.1015 40.3423 42.2925 41.2393 44.4785 40.9483C47.4825 40.5483 49.7525 37.7223 51.8145 35.7413C53.2355 34.3763 54.6245 32.9783 55.9795 31.5483C58.3905 29.0053 60.7405 26.4393 59.9705 23.0903C59.8275 22.4703 59.5785 21.8223 59.2025 21.1433C57.9485 18.8793 55.5995 17.3433 53.0885 16.7173C52.4925 16.5693 51.8345 16.4733 51.2885 16.7543C50.0665 17.3813 49.4045 20.0263 48.8535 21.1843C48.0255 22.9243 47.1555 24.6493 46.0965 26.2623Z" fill="white"/>
<path d="M56.9455 33.2562C54.0635 36.2942 51.2224 39.7662 47.6884 42.0642C47.0114 42.5042 46.0094 42.9512 45.8784 43.8372C45.7874 44.4482 46.1504 45.0242 46.4994 45.5332C47.4934 46.9852 48.6664 48.5332 50.3854 48.9062C51.3534 49.1172 52.3684 48.9142 53.3004 48.5772C56.9194 47.2712 61.0904 44.4042 63.6474 41.5512C65.2604 39.7522 66.3724 37.3422 66.0334 34.9492C66.0194 34.8472 66.0024 34.7462 65.9824 34.6452C65.6694 33.0272 64.7255 31.6092 63.5835 30.4442C63.0535 29.9042 62.3735 29.1422 61.6515 28.8862C60.7385 28.5802 60.2844 29.6822 59.7544 30.2562C58.8244 31.2632 57.8875 32.2622 56.9455 33.2562Z" fill="white"/>
<path d="M49.1854 50.4272C47.9834 50.0042 47.0554 49.1942 46.3104 48.1812C45.2514 46.7402 44.5654 44.8902 44.0004 43.1682C42.2244 43.1802 40.4464 42.7712 38.8544 41.9842C41.6594 48.7142 39.5834 57.1602 33.9764 61.8212C34.7594 58.6812 36.9314 56.0412 37.8204 52.9302C39.3024 47.7482 37.0224 42.2972 34.5994 37.4822C34.3564 36.9992 34.0984 36.5012 33.6724 36.1682C33.1604 35.7672 32.4843 35.6652 31.8533 35.5082C29.5333 34.9292 27.4644 33.4022 26.2274 31.3552C25.7164 30.5082 25.2323 29.4862 24.2773 29.2272C23.4423 29.0012 22.5973 29.4652 21.8183 29.8392C18.9623 31.2112 15.6133 31.5262 12.5513 30.7122C14.1293 29.6222 16.2104 29.7682 18.1084 29.4912C19.2334 29.3262 20.4104 28.8792 21.2384 28.0772C22.1194 27.2242 22.1304 26.2872 22.1854 25.1042C22.2094 24.5832 22.4194 23.0562 22.5434 22.1882C22.5694 22.0062 22.8214 21.9832 22.8804 22.1572C23.0044 22.5192 23.1433 23.0422 23.2233 23.7122C23.3703 24.9472 23.4603 25.7442 24.4233 26.6692C25.1663 27.3842 26.1364 27.8752 27.1064 28.2042C30.5554 29.3762 34.2484 29.8192 37.8774 29.5062C38.8764 29.5772 42.2164 27.7312 42.9524 26.7512C43.8644 25.5382 43.9754 24.1482 43.3824 22.7532C42.9164 21.6572 42.0414 20.7982 41.1024 20.0892C39.3184 18.7422 38.3794 17.8992 36.3574 17.0072C34.0704 15.7162 32.5194 13.4722 30.7524 11.5302C30.5374 11.2942 30.3163 11.0622 30.0893 10.8372C28.9673 9.72723 27.6573 8.72023 26.1383 8.22823C24.5473 7.71323 23.0124 8.07023 21.4684 8.59223C18.0014 9.76523 15.0333 12.0502 12.1723 14.2422C9.36835 16.3912 6.59335 18.5772 3.89035 20.8522C2.61235 21.9282 1.37835 23.0942 0.681351 24.5992C-0.259649 26.6312 -0.0896493 29.0012 0.376351 31.1912C1.45935 36.2812 3.31535 42.8882 5.22235 47.7302C6.58535 51.1902 8.35935 55.5072 9.13935 58.9692C11.1894 68.0662 11.0324 75.8882 9.76135 85.6092C9.45635 87.9402 11.2823 90.0012 13.6313 90.0012L28.6953 89.9992L44.3504 89.9972C46.6014 89.9972 48.3934 88.0972 48.2424 85.8512C47.9334 81.2482 48.0494 76.6162 48.5924 72.0352C48.5794 72.1492 46.9744 72.1062 46.8134 72.0992C46.2204 72.0732 45.6284 71.9992 45.0464 71.8802C43.9434 71.6542 42.8734 71.2642 41.8864 70.7202C44.1294 70.2222 46.3014 70.5682 48.4424 69.9982C50.7484 69.3842 52.3173 67.3002 53.6203 65.3022C57.8484 58.8202 61.2503 51.8002 63.7193 44.4652C61.2593 46.6012 58.4674 48.3532 55.4744 49.6392C53.4874 50.4952 51.2274 51.1452 49.1854 50.4272Z" fill="white"/>
</svg>
