<svg width="58" height="91" viewBox="0 0 58 91" fill="none" xmlns="http://www.w3.org/2000/svg">
<path d="M40.7998 54.7999C39.7998 55.4999 38.5998 55.7999 37.3998 55.8999H36.7998V56.7999V59.7999C36.7998 61.0999 37.5998 62.1999 38.6998 62.5999C39.0998 62.6999 39.3998 62.7999 39.7998 62.7999C41.4998 62.7999 42.8998 61.3999 42.7998 59.6999L42.9998 52.3999C42.8998 52.5999 42.6998 52.8999 42.5998 53.0999C42.0998 53.7999 41.4998 54.3999 40.7998 54.7999Z" fill="white"/>
<path d="M46.6999 53.1002L46.7999 56.1002C46.7999 57.4002 47.5999 58.5002 48.6999 58.9002C49.0999 59.0002 49.3999 59.1002 49.7999 59.1002C51.4999 59.1002 52.8999 57.7002 52.7999 56.0002L52.5999 39.7002L52.3999 39.3002C52.2999 39.0002 52.0999 38.8002 51.9999 38.5002C51.7999 38.3002 51.5999 38.1002 51.3999 37.9002C51.3999 37.9002 51.3999 37.9002 51.2999 37.8002C51.1999 37.7002 51.0999 37.7002 50.9999 37.6002C50.8999 37.5002 50.6999 37.5002 50.5999 37.4002C50.1999 37.3002 49.8999 37.2002 49.4999 37.2002C49.3999 37.2002 49.1999 37.2002 49.0999 37.2002H48.9999C48.8999 37.2002 48.7999 37.2002 48.7999 37.2002H48.6999C48.5999 37.2002 48.4999 37.2002 48.4999 37.3002H48.3999C48.2999 37.3002 48.1999 37.4002 48.1999 37.4002H48.0999C47.9999 37.4002 47.8999 37.5002 47.8999 37.5002H47.7999C47.2999 37.9002 46.8999 38.4002 46.5999 39.0002L46.4999 39.2002L46.3999 39.4002V39.9002V40.0002V41.4002V41.5002V41.6002L46.4999 46.9002L46.6999 53.1002Z" fill="white"/>
<path d="M37.2 42.8998C39.7 42.8998 41.8 44.2998 42.9 46.3998L42.7999 39.7998L42.5999 39.3998C42.4999 39.0998 42.4 38.8998 42.2 38.5998C42 38.3998 41.7999 38.1998 41.5999 37.9998C41.5999 37.9998 41.6 37.9998 41.5 37.8998C41.4 37.7998 41.3 37.7998 41.2 37.6998C41.1 37.5998 40.8999 37.5998 40.7999 37.4998C40.3999 37.3998 40.1 37.2998 39.7 37.2998C39.6 37.2998 39.3999 37.2998 39.2999 37.2998H39.2C39.1 37.2998 39 37.2998 39 37.2998H38.9C38.8 37.2998 38.7 37.2998 38.7 37.3998H38.5999C38.4999 37.3998 38.4 37.4998 38.4 37.4998H38.2999C38.1999 37.4998 38.1 37.5998 38 37.6998C37.5 37.9998 37.1 38.5998 36.9 39.1998L36.7999 39.3998L36.7 39.5998V40.0998V40.1998V41.5998V41.6998C36.7 41.7998 36.7 41.7998 36.7 41.8998V42.6998H37C37.1 42.8998 37.2 42.8998 37.2 42.8998Z" fill="white"/>
<path d="M57.2999 46.8999C57.2999 46.8999 57.5999 42.0999 55.0999 40.8999L55.2999 55.9999C55.2999 58.9999 52.8999 61.4999 49.8999 61.4999C49.1999 61.4999 48.4999 61.3999 47.8999 61.0999C46.9999 60.6999 46.1999 60.0999 45.5999 59.3999V59.7999C45.5999 62.7999 43.1999 65.2999 40.1999 65.2999C39.4999 65.2999 38.7999 65.1999 38.1999 64.8999C36.0999 64.0999 34.6999 62.0999 34.6999 59.8999V56.0999L24.7999 56.4999C24.1999 56.4999 23.5999 55.9999 23.5999 55.2999C23.5999 54.5999 24.0999 54.0999 24.6999 54.0999L37.4999 53.5999C38.2999 53.5999 38.9999 53.2999 39.5999 52.8999C39.9999 52.5999 40.3999 52.1999 40.6999 51.7999C41.1999 51.0999 41.4999 50.1999 41.3999 49.2999C41.2999 46.9999 39.3999 45.1999 37.0999 45.2999H36.9999H36.8999L5.2999 42.8999C4.3999 42.9999 3.4999 43.2999 2.6999 43.8999C0.3999 45.6999 -0.1001 48.9999 1.6999 51.3999L17.1999 86.8999C17.9999 88.0999 19.0999 89.0999 20.4999 89.5999C21.2999 89.8999 22.1999 90.0999 22.9999 90.0999L43.7999 89.9999C46.8999 89.9999 49.5999 87.8999 50.3999 84.8999L57.3999 58.1999L57.2999 46.8999Z" fill="white"/>
<path d="M34.3999 42.7V42.1C34.3999 42 34.3999 41.9 34.3999 41.8V41.1C34.1999 41.1 33.9999 41.2 33.8999 41.2C33.5999 41.2 33.3999 41.1 33.0999 41.1C32.2999 40.8 31.6999 40 31.6999 39.1L36.9999 4.2C36.9999 2.4 35.8999 0.9 34.2999 0.3C33.7999 0.1 33.2999 0 32.6999 0C30.2999 0 28.4999 1.9 28.4999 4.3L23.2999 39.1C23.2999 39.7 23.0999 40.2 22.6999 40.6C22.2999 41 21.7999 41.2 21.1999 41.2C20.8999 41.2 20.6999 41.2 20.3999 41.1C19.5999 40.8 19.0999 40 18.9999 39.1L12.8999 7.4C12.8999 5.6 11.7999 4.1 10.1999 3.5C9.6999 3.3 9.1999 3.2 8.5999 3.2C6.1999 3.2 4.3999 5.1 4.3999 7.5L10.4999 40.9L34.3999 42.7Z" fill="white"/>
</svg>
